
                <svg id="trend-chart" width="660" height="400" title="Stack Overflow Trends Chart" version="1.1" xmlns="http://www.w3.org/2000/svg"><g></g><g class="chart-area" transform="translate(100, 20)"><g transform="translate(0,300)" fill="none" font-size="10" font-family="sans-serif" text-anchor="middle"><path class="domain" stroke="#000" d="M0.5,6V0.5H410.5V6"></path><g class="tick" opacity="1" transform="translate(19.27121723996724,0)"><line stroke="#000" y2="6" x1="0.5" x2="0.5"></line><text fill="#000" y="9" x="0.5" dy="0.71em" style="font-size: 12px;">2009</text></g><g class="tick" opacity="1" transform="translate(65.23251945126945,0)"><line stroke="#000" y2="6" x1="0.5" x2="0.5"></line><text fill="#000" y="9" x="0.5" dy="0.71em" style="font-size: 12px;">2010</text></g><g class="tick" opacity="1" transform="translate(111.19382166257166,0)"><line stroke="#000" y2="6" x1="0.5" x2="0.5"></line><text fill="#000" y="9" x="0.5" dy="0.71em" style="font-size: 12px;">2011</text></g><g class="tick" opacity="1" transform="translate(157.15512387387386,0)"><line stroke="#000" y2="6" x1="0.5" x2="0.5"></line><text fill="#000" y="9" x="0.5" dy="0.71em" style="font-size: 12px;">2012</text></g><g class="tick" opacity="1" transform="translate(203.24234746109747,0)"><line stroke="#000" y2="6" x1="0.5" x2="0.5"></line><text fill="#000" y="9" x="0.5" dy="0.71em" style="font-size: 12px;">2013</text></g><g class="tick" opacity="1" transform="translate(249.20364967239968,0)"><line stroke="#000" y2="6" x1="0.5" x2="0.5"></line><text fill="#000" y="9" x="0.5" dy="0.71em" style="font-size: 12px;">2014</text></g><g class="tick" opacity="1" transform="translate(295.16495188370186,0)"><line stroke="#000" y2="6" x1="0.5" x2="0.5"></line><text fill="#000" y="9" x="0.5" dy="0.71em" style="font-size: 12px;">2015</text></g><g class="tick" opacity="1" transform="translate(341.1262540950041,0)"><line stroke="#000" y2="6" x1="0.5" x2="0.5"></line><text fill="#000" y="9" x="0.5" dy="0.71em" style="font-size: 12px;">2016</text></g><g class="tick" opacity="1" transform="translate(387.2134776822277,0)"><line stroke="#000" y2="6" x1="0.5" x2="0.5"></line><text fill="#000" y="9" x="0.5" dy="0.71em" style="font-size: 12px;">2017</text></g></g><g class="grid-lines" transform="translate(0,300)" fill="none" font-size="10" font-family="sans-serif" text-anchor="middle"><path class="domain" stroke="#000" d="M0.5,-300V0.5H410.5V-300"></path><g class="tick" opacity="1" transform="translate(19.27121723996724,0)"><line stroke="#000" y2="-300" x1="0.5" x2="0.5" style="stroke: #ccc; fill: none;"></line></g><g class="tick" opacity="1" transform="translate(65.23251945126945,0)"><line stroke="#000" y2="-300" x1="0.5" x2="0.5" style="stroke: #ccc; fill: none;"></line></g><g class="tick" opacity="1" transform="translate(111.19382166257166,0)"><line stroke="#000" y2="-300" x1="0.5" x2="0.5" style="stroke: #ccc; fill: none;"></line></g><g class="tick" opacity="1" transform="translate(157.15512387387386,0)"><line stroke="#000" y2="-300" x1="0.5" x2="0.5" style="stroke: #ccc; fill: none;"></line></g><g class="tick" opacity="1" transform="translate(203.24234746109747,0)"><line stroke="#000" y2="-300" x1="0.5" x2="0.5" style="stroke: #ccc; fill: none;"></line></g><g class="tick" opacity="1" transform="translate(249.20364967239968,0)"><line stroke="#000" y2="-300" x1="0.5" x2="0.5" style="stroke: #ccc; fill: none;"></line></g><g class="tick" opacity="1" transform="translate(295.16495188370186,0)"><line stroke="#000" y2="-300" x1="0.5" x2="0.5" style="stroke: #ccc; fill: none;"></line></g><g class="tick" opacity="1" transform="translate(341.1262540950041,0)"><line stroke="#000" y2="-300" x1="0.5" x2="0.5" style="stroke: #ccc; fill: none;"></line></g><g class="tick" opacity="1" transform="translate(387.2134776822277,0)"><line stroke="#000" y2="-300" x1="0.5" x2="0.5" style="stroke: #ccc; fill: none;"></line></g></g><text x="205" y="360" class="axis-label x-axis-label" style="text-anchor: middle; font-weight: bold;">Year</text><g fill="none" font-size="10" font-family="sans-serif" text-anchor="end"><path class="domain" stroke="#000" d="M-6,300.5H0.5V0.5H-6"></path><g class="tick" opacity="1" transform="translate(0,300)"><line stroke="#000" x2="-6" y1="0.5" y2="0.5"></line><text fill="#000" x="-9" y="0.5" dy="0.32em" style="font-size: 12px;">0.00%</text></g><g class="tick" opacity="1" transform="translate(0,278.57142857142856)"><line stroke="#000" x2="-6" y1="0.5" y2="0.5"></line><text fill="#000" x="-9" y="0.5" dy="0.32em" style="font-size: 12px;">0.05%</text></g><g class="tick" opacity="1" transform="translate(0,257.14285714285717)"><line stroke="#000" x2="-6" y1="0.5" y2="0.5"></line><text fill="#000" x="-9" y="0.5" dy="0.32em" style="font-size: 12px;">0.10%</text></g><g class="tick" opacity="1" transform="translate(0,235.71428571428572)"><line stroke="#000" x2="-6" y1="0.5" y2="0.5"></line><text fill="#000" x="-9" y="0.5" dy="0.32em" style="font-size: 12px;">0.15%</text></g><g class="tick" opacity="1" transform="translate(0,214.28571428571428)"><line stroke="#000" x2="-6" y1="0.5" y2="0.5"></line><text fill="#000" x="-9" y="0.5" dy="0.32em" style="font-size: 12px;">0.20%</text></g><g class="tick" opacity="1" transform="translate(0,192.85714285714286)"><line stroke="#000" x2="-6" y1="0.5" y2="0.5"></line><text fill="#000" x="-9" y="0.5" dy="0.32em" style="font-size: 12px;">0.25%</text></g><g class="tick" opacity="1" transform="translate(0,171.42857142857144)"><line stroke="#000" x2="-6" y1="0.5" y2="0.5"></line><text fill="#000" x="-9" y="0.5" dy="0.32em" style="font-size: 12px;">0.30%</text></g><g class="tick" opacity="1" transform="translate(0,150)"><line stroke="#000" x2="-6" y1="0.5" y2="0.5"></line><text fill="#000" x="-9" y="0.5" dy="0.32em" style="font-size: 12px;">0.35%</text></g><g class="tick" opacity="1" transform="translate(0,128.57142857142858)"><line stroke="#000" x2="-6" y1="0.5" y2="0.5"></line><text fill="#000" x="-9" y="0.5" dy="0.32em" style="font-size: 12px;">0.40%</text></g><g class="tick" opacity="1" transform="translate(0,107.14285714285717)"><line stroke="#000" x2="-6" y1="0.5" y2="0.5"></line><text fill="#000" x="-9" y="0.5" dy="0.32em" style="font-size: 12px;">0.45%</text></g><g class="tick" opacity="1" transform="translate(0,85.71428571428572)"><line stroke="#000" x2="-6" y1="0.5" y2="0.5"></line><text fill="#000" x="-9" y="0.5" dy="0.32em" style="font-size: 12px;">0.50%</text></g><g class="tick" opacity="1" transform="translate(0,64.28571428571428)"><line stroke="#000" x2="-6" y1="0.5" y2="0.5"></line><text fill="#000" x="-9" y="0.5" dy="0.32em" style="font-size: 12px;">0.55%</text></g><g class="tick" opacity="1" transform="translate(0,42.85714285714289)"><line stroke="#000" x2="-6" y1="0.5" y2="0.5"></line><text fill="#000" x="-9" y="0.5" dy="0.32em" style="font-size: 12px;">0.60%</text></g><g class="tick" opacity="1" transform="translate(0,21.428571428571445)"><line stroke="#000" x2="-6" y1="0.5" y2="0.5"></line><text fill="#000" x="-9" y="0.5" dy="0.32em" style="font-size: 12px;">0.65%</text></g><g class="tick" opacity="1" transform="translate(0,0)"><line stroke="#000" x2="-6" y1="0.5" y2="0.5"></line><text fill="#000" x="-9" y="0.5" dy="0.32em" style="font-size: 12px;">0.70%</text></g></g><g class="grid-lines" fill="none" font-size="10" font-family="sans-serif" text-anchor="end"><path class="domain" stroke="#000" d="M410,300.5H0.5V0.5H410"></path><g class="tick" opacity="1" transform="translate(0,300)"><line stroke="#000" x2="410" y1="0.5" y2="0.5" style="stroke: #ccc; fill: none;"></line></g><g class="tick" opacity="1" transform="translate(0,278.57142857142856)"><line stroke="#000" x2="410" y1="0.5" y2="0.5" style="stroke: #ccc; fill: none;"></line></g><g class="tick" opacity="1" transform="translate(0,257.14285714285717)"><line stroke="#000" x2="410" y1="0.5" y2="0.5" style="stroke: #ccc; fill: none;"></line></g><g class="tick" opacity="1" transform="translate(0,235.71428571428572)"><line stroke="#000" x2="410" y1="0.5" y2="0.5" style="stroke: #ccc; fill: none;"></line></g><g class="tick" opacity="1" transform="translate(0,214.28571428571428)"><line stroke="#000" x2="410" y1="0.5" y2="0.5" style="stroke: #ccc; fill: none;"></line></g><g class="tick" opacity="1" transform="translate(0,192.85714285714286)"><line stroke="#000" x2="410" y1="0.5" y2="0.5" style="stroke: #ccc; fill: none;"></line></g><g class="tick" opacity="1" transform="translate(0,171.42857142857144)"><line stroke="#000" x2="410" y1="0.5" y2="0.5" style="stroke: #ccc; fill: none;"></line></g><g class="tick" opacity="1" transform="translate(0,150)"><line stroke="#000" x2="410" y1="0.5" y2="0.5" style="stroke: #ccc; fill: none;"></line></g><g class="tick" opacity="1" transform="translate(0,128.57142857142858)"><line stroke="#000" x2="410" y1="0.5" y2="0.5" style="stroke: #ccc; fill: none;"></line></g><g class="tick" opacity="1" transform="translate(0,107.14285714285717)"><line stroke="#000" x2="410" y1="0.5" y2="0.5" style="stroke: #ccc; fill: none;"></line></g><g class="tick" opacity="1" transform="translate(0,85.71428571428572)"><line stroke="#000" x2="410" y1="0.5" y2="0.5" style="stroke: #ccc; fill: none;"></line></g><g class="tick" opacity="1" transform="translate(0,64.28571428571428)"><line stroke="#000" x2="410" y1="0.5" y2="0.5" style="stroke: #ccc; fill: none;"></line></g><g class="tick" opacity="1" transform="translate(0,42.85714285714289)"><line stroke="#000" x2="410" y1="0.5" y2="0.5" style="stroke: #ccc; fill: none;"></line></g><g class="tick" opacity="1" transform="translate(0,21.428571428571445)"><line stroke="#000" x2="410" y1="0.5" y2="0.5" style="stroke: #ccc; fill: none;"></line></g><g class="tick" opacity="1" transform="translate(0,0)"><line stroke="#000" x2="410" y1="0.5" y2="0.5" style="stroke: #ccc; fill: none;"></line></g></g><g class="lines"><path class="line" d="M3.9035626535626538,300L7.681203931203931,300L11.590013308763309,300L15.367654586404585,300L19.27121723996724,300L23.174779893529895,300L26.70057841932842,300L30.598894348894348,300L34.37653562653563,300L38.28009828009828,300L42.05773955773956,300L45.96130221130221,300L49.86486486486487,300L53.64250614250615,300L57.551315520065515,300L61.328956797706795,300L65.23251945126945,300L69.1360821048321,300L72.66188063063062,300L76.56019656019656,300L80.33783783783784,300L84.2414004914005,300L88.01904176904176,300L91.92260442260442,300L95.82616707616708,300L99.60380835380836,300L103.51261773136774,300L107.29025900900902,300L111.19382166257166,300L115.09738431613431,300L118.62318284193283,300L122.52149877149877,300L126.29914004914005,300L130.20270270270268,300L133.98034398034397,300L137.88390663390663,300L141.7874692874693,300L145.5651105651106,300L149.47391994266994,300L153.25156122031123,300L157.15512387387386,300L161.05868652743652,300L164.71040642915642,300L168.60872235872236,300L172.38636363636365,299.69142857142856L176.28992628992629,300L180.06756756756758,300L183.9711302211302,300L187.87469287469287,300L191.65233415233416,300L195.56114352989354,300L199.3387848075348,300L203.24234746109747,300L207.14591011466013,300L210.67170864045866,299.0442857142857L214.5700245700246,298.05857142857144L218.34766584766584,298.9971428571429L222.25122850122852,296.04L226.02886977886976,295.73571428571427L229.93243243243245,294.0857142857143L233.8359950859951,290.1171428571429L237.61363636363637,289.99285714285713L241.52244574119575,290.2457142857143L245.30008701883702,289.60285714285715L249.20364967239968,283.1357142857143L253.10721232596234,282.6042857142857L256.63301085176084,280.05L260.5313267813268,284.71714285714285L264.3089680589681,277.94142857142856L268.21253071253074,264.00428571428574L271.99017199017203,258.4371428571429L275.89373464373466,245.99571428571429L279.7972972972973,250.33285714285714L283.5749385749386,238.75714285714287L287.48374795249794,235.96714285714285L291.26138923013923,217.26428571428573L295.16495188370186,216.24L299.06851453726455,217.77857142857144L302.59431306306305,217.84285714285716L306.492628992629,208.9242857142857L310.27027027027026,204.19714285714286L314.17383292383295,198.62571428571428L317.95147420147424,177.14142857142858L321.8550368550369,185.68285714285716L325.7585995085995,174.74142857142857L329.5362407862408,170.87142857142857L333.44505016380015,157.56428571428575L337.22269144144144,150.26142857142858L341.1262540950041,148.69714285714284L345.02981674856676,139.00285714285715L348.68153665028666,145.49142857142854L352.57985257985257,132.10714285714286L356.35749385749386,134.5885714285714L360.2610565110565,118.06285714285713L364.0386977886978,106.98857142857142L367.9422604422604,91.32857142857142L371.8458230958231,107.89285714285717L375.62346437346434,90.15428571428569L379.53227375102375,104.90571428571428L383.30991502866505,86.75999999999999L387.2134776822277,61.898571428571415L391.1170403357903,72.29142857142855L394.64283886158887,92.98285714285711L398.5411547911548,71.31428571428572L402.3187960687961,45.505714285714305L406.2223587223587,30.814285714285745L410,50.639999999999986" data-legend="docker" style="stroke: rgb(31, 119, 180); fill: none;"></path></g></g><g transform="translate(20, 150)"><text transform="rotate(-90)" x="-50" y="0" dy="1em" class="axis-label y-axis-label" style="text-anchor: middle; font-weight: bold;">% of Stack Overflow questions that month</text></g><g class="legend" transform="translate(530, 30)" style="font-size: 12px;"><text class="legend-title" style="font-weight: bold;">Tag</text><g class="legend-items" transform="translate(0,20)"><text y="0em" x="1em">docker</text><circle cy="-0.25em" cx="0" r="0.4em" style="fill: rgb(31, 119, 180);"></circle></g><rect class="legend-box"></rect></g></svg>
            